<svg width="16" height="17" viewBox="0 0 16 17" fill="none" xmlns="http://www.w3.org/2000/svg">
<path d="M3.99992 4.49003L6.99992 7.49003M3.99992 4.49003H1.99992L1.33325 2.49003L1.99992 1.82336L3.99992 2.49003V4.49003ZM12.8392 2.31737L11.0875 4.06912C10.8235 4.33313 10.6915 4.46513 10.642 4.61735C10.5985 4.75125 10.5985 4.89548 10.642 5.02938C10.6915 5.18159 10.8235 5.3136 11.0875 5.57761L11.2457 5.73578C11.5097 5.9998 11.6417 6.1318 11.7939 6.18126C11.9278 6.22476 12.072 6.22476 12.2059 6.18126C12.3581 6.1318 12.4902 5.9998 12.7542 5.73578L14.3928 4.09718C14.5693 4.52662 14.6666 4.99696 14.6666 5.49003C14.6666 7.51508 13.025 9.1567 10.9999 9.1567C10.7558 9.1567 10.5172 9.13284 10.2864 9.08732C9.96233 9.0234 9.80028 8.99144 9.70204 9.00123C9.5976 9.01164 9.54613 9.0273 9.45359 9.07682C9.36655 9.1234 9.27923 9.21072 9.1046 9.38535L4.33325 14.1567C3.78097 14.709 2.88554 14.709 2.33325 14.1567C1.78097 13.6044 1.78097 12.709 2.33325 12.1567L7.1046 7.38534C7.27923 7.21071 7.36655 7.1234 7.41313 7.03636C7.46265 6.94382 7.47831 6.89234 7.48872 6.7879C7.49851 6.68967 7.46655 6.52762 7.40263 6.20352C7.35711 5.97274 7.33325 5.73417 7.33325 5.49003C7.33325 3.46499 8.97487 1.82336 10.9999 1.82336C11.6703 1.82336 12.2986 2.00325 12.8392 2.31737ZM7.99995 10.49L11.6666 14.1566C12.2189 14.7089 13.1143 14.7089 13.6666 14.1566C14.2189 13.6043 14.2189 12.7089 13.6666 12.1566L10.6501 9.14023C10.4366 9.12002 10.2284 9.0815 10.0271 9.02625C9.76773 8.95506 9.48322 9.00673 9.29303 9.19692L7.99995 10.49Z" stroke="#B5B5B5" stroke-width="1.5" stroke-linecap="round" stroke-linejoin="round"/>
</svg>
