<svg width="16" height="17" viewBox="0 0 16 17" fill="none" xmlns="http://www.w3.org/2000/svg">
<path d="M3.99992 10.49C3.44659 10.49 2.94659 10.7167 2.58659 11.0767C1.79992 11.8633 1.33325 15.1567 1.33325 15.1567C1.33325 15.1567 4.62659 14.69 5.41325 13.9033C5.77325 13.5433 5.99992 13.0433 5.99992 12.49C5.99992 11.3833 5.10659 10.49 3.99992 10.49ZM4.47325 12.9633C4.28659 13.15 3.02659 13.47 3.02659 13.47C3.02659 13.47 3.33992 12.2167 3.53325 12.0233C3.64659 11.8967 3.81325 11.8233 3.99992 11.8233C4.36659 11.8233 4.66659 12.1233 4.66659 12.49C4.66659 12.6767 4.59325 12.8433 4.47325 12.9633ZM11.6133 9.58999C15.8533 5.34999 14.4399 2.04999 14.4399 2.04999C14.4399 2.04999 11.1399 0.636653 6.89992 4.87665L5.23992 4.54332C4.80659 4.45665 4.35325 4.59665 4.03325 4.90999L1.33325 7.61665L4.66659 9.04332L7.44659 11.8233L8.87325 15.1567L11.5733 12.4567C11.8866 12.1433 12.0266 11.69 11.9399 11.25L11.6133 9.58999ZM4.93992 7.70999L3.66659 7.16332L4.97992 5.84999L5.93992 6.04332C5.55992 6.59665 5.21992 7.17665 4.93992 7.70999ZM9.32659 12.8233L8.77992 11.55C9.31325 11.27 9.89325 10.93 10.4399 10.55L10.6333 11.51L9.32659 12.8233ZM10.6666 8.64999C9.78659 9.52999 8.41325 10.25 7.97325 10.47L6.01992 8.51665C6.23325 8.08332 6.95325 6.70999 7.83992 5.82332C10.9599 2.70332 13.3266 3.16332 13.3266 3.16332C13.3266 3.16332 13.7866 5.52999 10.6666 8.64999ZM9.99992 7.82332C10.7333 7.82332 11.3333 7.22332 11.3333 6.48999C11.3333 5.75665 10.7333 5.15665 9.99992 5.15665C9.26659 5.15665 8.66659 5.75665 8.66659 6.48999C8.66659 7.22332 9.26659 7.82332 9.99992 7.82332Z" fill="#B5B5B5"/>
</svg>
