<svg width="16" height="17" viewBox="0 0 16 17" fill="none" xmlns="http://www.w3.org/2000/svg">
<g clip-path="url(#clip0_5_8593)">
<path d="M9.33341 7.82336H5.33341M6.66675 10.49H5.33341M10.6667 5.1567H5.33341M13.3334 5.02336V11.9567C13.3334 13.0768 13.3334 13.6369 13.1154 14.0647C12.9237 14.441 12.6177 14.747 12.2414 14.9387C11.8136 15.1567 11.2535 15.1567 10.1334 15.1567H5.86675C4.74664 15.1567 4.18659 15.1567 3.75877 14.9387C3.38244 14.747 3.07648 14.441 2.88473 14.0647C2.66675 13.6369 2.66675 13.0768 2.66675 11.9567V5.02336C2.66675 3.90326 2.66675 3.34321 2.88473 2.91538C3.07648 2.53906 3.38244 2.2331 3.75877 2.04135C4.18659 1.82336 4.74664 1.82336 5.86675 1.82336H10.1334C11.2535 1.82336 11.8136 1.82336 12.2414 2.04135C12.6177 2.2331 12.9237 2.53906 13.1154 2.91538C13.3334 3.34321 13.3334 3.90326 13.3334 5.02336Z" stroke="#B5B5B5" stroke-width="2" stroke-linecap="round" stroke-linejoin="round"/>
</g>
<defs>
<clipPath id="clip0_5_8593">
<rect width="16" height="16" fill="white" transform="translate(0 0.48999)"/>
</clipPath>
</defs>
</svg>
