<svg width="16" height="17" viewBox="0 0 16 17" fill="none" xmlns="http://www.w3.org/2000/svg">
<path d="M8.66659 5.15666L7.92289 3.66927C7.70885 3.24119 7.60183 3.02714 7.44217 2.87077C7.30097 2.73248 7.1308 2.62731 6.94397 2.56286C6.73269 2.48999 6.49339 2.48999 6.01478 2.48999H3.46659C2.71985 2.48999 2.34648 2.48999 2.06126 2.63531C1.81038 2.76315 1.60641 2.96712 1.47858 3.218C1.33325 3.50322 1.33325 3.87659 1.33325 4.62332V5.15666M1.33325 5.15666H11.4666C12.5867 5.15666 13.1467 5.15666 13.5746 5.37464C13.9509 5.56639 14.2569 5.87235 14.4486 6.24868C14.6666 6.6765 14.6666 7.23655 14.6666 8.35666V11.29C14.6666 12.4101 14.6666 12.9701 14.4486 13.398C14.2569 13.7743 13.9509 14.0803 13.5746 14.272C13.1467 14.49 12.5867 14.49 11.4666 14.49H4.53325C3.41315 14.49 2.85309 14.49 2.42527 14.272C2.04895 14.0803 1.74299 13.7743 1.55124 13.398C1.33325 12.9701 1.33325 12.4101 1.33325 11.29V5.15666Z" stroke="#B5B5B5" stroke-width="1.5" stroke-linecap="round" stroke-linejoin="round"/>
</svg>
