<svg width="16" height="17" viewBox="0 0 16 17" fill="none" xmlns="http://www.w3.org/2000/svg">
<g clip-path="url(#clip0_5_8570)">
<path d="M10.3333 9.48995C10.3333 10.8233 8.66667 11.8233 8.66667 12.8233H7.33333C7.33333 11.8233 5.66667 10.8233 5.66667 9.48995C5.66667 8.20328 6.71333 7.15662 8 7.15662C9.28667 7.15662 10.3333 8.20328 10.3333 9.48995ZM8.66667 13.4899H7.33333V14.4899H8.66667V13.4899ZM12.6667 9.15662C12.6667 10.2766 12.2733 11.2966 11.6133 12.1033L12.56 13.0499C13.4533 12.0033 14 10.6433 14 9.15662C14 7.32995 13.18 5.69662 11.8933 4.59662L10.9467 5.54328C11.9933 6.39662 12.6667 7.70328 12.6667 9.15662ZM10.6667 3.82328L8 1.15662V3.15662C4.68667 3.15662 2 5.84328 2 9.15662C2 10.6433 2.54667 12.0033 3.44 13.0499L4.38667 12.1033C3.72667 11.2966 3.33333 10.2766 3.33333 9.15662C3.33333 6.58328 5.42667 4.48995 8 4.48995V6.48995L10.6667 3.82328Z" fill="#B5B5B5" stroke="#CBCBCB" stroke-width="0.353977"/>
</g>
<defs>
<clipPath id="clip0_5_8570">
<rect width="16" height="16" fill="white" transform="translate(0 0.48999)"/>
</clipPath>
</defs>
</svg>
