<svg width="22" height="26" viewBox="0 0 22 26" fill="none" xmlns="http://www.w3.org/2000/svg">
<g clip-path="url(#clip0_5_8537)">
<path d="M10.2387 0.623526L0.467774 6.39466C0.325545 6.47889 0.207473 6.59979 0.12538 6.74527C0.0432857 6.89074 5.30701e-05 7.05568 0 7.2236V18.7674C5.30701e-05 18.9353 0.0432857 19.1002 0.12538 19.2458C0.207473 19.3912 0.325545 19.5121 0.467774 19.5964L10.2387 25.3667C10.3814 25.4508 10.5434 25.4951 10.7081 25.4951C10.8728 25.4951 11.0347 25.4508 11.1774 25.3667L20.9484 19.5964C21.0906 19.5121 21.2087 19.3912 21.2908 19.2458C21.3729 19.1002 21.4161 18.9353 21.4162 18.7674V7.2236C21.4161 7.05568 21.3729 6.89074 21.2908 6.74527C21.2087 6.59979 21.0906 6.47889 20.9484 6.39466L11.1774 0.623526C11.0347 0.539393 10.8728 0.495117 10.7081 0.495117C10.5434 0.495117 10.3814 0.539393 10.2387 0.623526ZM8.64618 19.8666L9.80638 14.8192C9.81467 14.7826 9.81368 14.7445 9.80349 14.7085C9.79322 14.6724 9.77408 14.6397 9.74789 14.6133L6.93046 11.8122C6.91033 11.792 6.89428 11.7678 6.88336 11.7412C6.87243 11.7145 6.86678 11.6859 6.86678 11.657C6.86678 11.6281 6.87243 11.5995 6.88336 11.5729C6.89428 11.5462 6.91033 11.5221 6.93046 11.5018L12.4291 5.91694C12.4618 5.88343 12.5043 5.86176 12.5501 5.85519C12.596 5.84863 12.6427 5.85754 12.6832 5.88059C12.7236 5.90363 12.7555 5.93953 12.7741 5.98283C12.7927 6.02613 12.7969 6.07447 12.7862 6.12045L11.6244 11.1805C11.6157 11.217 11.6165 11.2552 11.6268 11.2914C11.637 11.3275 11.6564 11.3602 11.6829 11.3864L14.4787 14.1726C14.4989 14.1927 14.5149 14.2168 14.5259 14.2434C14.5368 14.27 14.5424 14.2985 14.5424 14.3273C14.5424 14.3561 14.5368 14.3847 14.5259 14.4112C14.5149 14.4378 14.4989 14.4619 14.4787 14.4821L8.99855 20.0709C8.96559 20.1035 8.92316 20.1245 8.87763 20.1305C8.83211 20.1366 8.78586 20.1274 8.74586 20.1045C8.70579 20.0815 8.67408 20.0459 8.65546 20.0031C8.63678 19.9602 8.63217 19.9124 8.6423 19.8666H8.64618Z" fill="url(#paint0_linear_5_8537)"/>
</g>
<defs>
<linearGradient id="paint0_linear_5_8537" x1="16.1498" y1="3.71658" x2="-4.96613" y2="39.3564" gradientUnits="userSpaceOnUse">
<stop stop-color="#BB8BFF"/>
<stop offset="1" stop-color="#75F6FF"/>
</linearGradient>
<clipPath id="clip0_5_8537">
<rect width="21.7105" height="25" fill="white" transform="translate(0 0.495117)"/>
</clipPath>
</defs>
</svg>
