<svg width="16" height="17" viewBox="0 0 16 17" fill="none" xmlns="http://www.w3.org/2000/svg">
<path d="M6.88333 3.36799C7.16733 2.19732 8.83267 2.19732 9.11667 3.36799C9.15928 3.54386 9.24281 3.70718 9.36047 3.84466C9.47813 3.98214 9.62659 4.08989 9.79377 4.15915C9.96094 4.22842 10.1421 4.25722 10.3225 4.24324C10.5029 4.22925 10.6775 4.17286 10.832 4.07866C11.8607 3.45199 13.0387 4.62932 12.412 5.65866C12.3179 5.81309 12.2616 5.98755 12.2477 6.16784C12.2337 6.34813 12.2625 6.52917 12.3317 6.69624C12.4009 6.86332 12.5085 7.01171 12.6458 7.12936C12.7831 7.24701 12.9463 7.33059 13.122 7.37332C14.2927 7.65732 14.2927 9.32266 13.122 9.60666C12.9461 9.64927 12.7828 9.7328 12.6453 9.85046C12.5079 9.96812 12.4001 10.1166 12.3308 10.2838C12.2616 10.4509 12.2328 10.6321 12.2468 10.8125C12.2607 10.9929 12.3171 11.1675 12.4113 11.322C13.038 12.3507 11.8607 13.5287 10.8313 12.902C10.6769 12.8079 10.5024 12.7516 10.3222 12.7377C10.1419 12.7237 9.96082 12.7525 9.79375 12.8217C9.62667 12.8909 9.47828 12.9985 9.36063 13.1358C9.24298 13.2731 9.1594 13.4363 9.11667 13.612C8.83267 14.7827 7.16733 14.7827 6.88333 13.612C6.84072 13.4361 6.75719 13.2728 6.63953 13.1353C6.52187 12.9978 6.37341 12.8901 6.20623 12.8208C6.03906 12.7516 5.85789 12.7228 5.67748 12.7367C5.49706 12.7507 5.3225 12.8071 5.168 12.9013C4.13933 13.528 2.96133 12.3507 3.588 11.3213C3.68207 11.1669 3.73837 10.9924 3.75232 10.8121C3.76628 10.6319 3.7375 10.4508 3.66831 10.2837C3.59913 10.1167 3.49151 9.96827 3.35418 9.85062C3.21686 9.73297 3.05371 9.64939 2.878 9.60666C1.70733 9.32266 1.70733 7.65732 2.878 7.37332C3.05387 7.33071 3.21719 7.24718 3.35467 7.12952C3.49215 7.01186 3.5999 6.8634 3.66916 6.69622C3.73843 6.52905 3.76723 6.34788 3.75325 6.16747C3.73926 5.98705 3.68287 5.81249 3.58867 5.65799C2.962 4.62932 4.13933 3.45132 5.16867 4.07799C5.83533 4.48332 6.69933 4.12466 6.88333 3.36799Z" stroke="#B5B5B5" stroke-width="1.5" stroke-linecap="round" stroke-linejoin="round"/>
<path d="M8 10.49C9.10457 10.49 10 9.59456 10 8.48999C10 7.38542 9.10457 6.48999 8 6.48999C6.89543 6.48999 6 7.38542 6 8.48999C6 9.59456 6.89543 10.49 8 10.49Z" stroke="#B5B5B5" stroke-width="1.5" stroke-linecap="round" stroke-linejoin="round"/>
</svg>
