<svg width="16" height="17" viewBox="0 0 16 17" fill="none" xmlns="http://www.w3.org/2000/svg">
<path d="M4.00008 9.15662C3.63341 9.15662 3.33341 9.45662 3.33341 9.82328C3.33341 10.1899 3.63341 10.4899 4.00008 10.4899C4.36675 10.4899 4.66675 10.1899 4.66675 9.82328C4.66675 9.45662 4.36675 9.15662 4.00008 9.15662ZM4.00008 11.8233C3.63341 11.8233 3.33341 12.1233 3.33341 12.4899C3.33341 12.8566 3.63341 13.1566 4.00008 13.1566C4.36675 13.1566 4.66675 12.8566 4.66675 12.4899C4.66675 12.1233 4.36675 11.8233 4.00008 11.8233ZM4.00008 6.48995C3.63341 6.48995 3.33341 6.78995 3.33341 7.15662C3.33341 7.52328 3.63341 7.82328 4.00008 7.82328C4.36675 7.82328 4.66675 7.52328 4.66675 7.15662C4.66675 6.78995 4.36675 6.48995 4.00008 6.48995ZM2.00008 6.82328C1.81341 6.82328 1.66675 6.96995 1.66675 7.15662C1.66675 7.34328 1.81341 7.48995 2.00008 7.48995C2.18675 7.48995 2.33341 7.34328 2.33341 7.15662C2.33341 6.96995 2.18675 6.82328 2.00008 6.82328ZM4.00008 3.82328C3.63341 3.82328 3.33341 4.12328 3.33341 4.48995C3.33341 4.85662 3.63341 5.15662 4.00008 5.15662C4.36675 5.15662 4.66675 4.85662 4.66675 4.48995C4.66675 4.12328 4.36675 3.82328 4.00008 3.82328ZM14.0001 7.48995C14.1867 7.48995 14.3334 7.34328 14.3334 7.15662C14.3334 6.96995 14.1867 6.82328 14.0001 6.82328C13.8134 6.82328 13.6667 6.96995 13.6667 7.15662C13.6667 7.34328 13.8134 7.48995 14.0001 7.48995ZM9.33341 5.15662C9.70008 5.15662 10.0001 4.85662 10.0001 4.48995C10.0001 4.12328 9.70008 3.82328 9.33341 3.82328C8.96675 3.82328 8.66675 4.12328 8.66675 4.48995C8.66675 4.85662 8.96675 5.15662 9.33341 5.15662ZM9.33341 2.82328C9.52008 2.82328 9.66675 2.67662 9.66675 2.48995C9.66675 2.30328 9.52008 2.15662 9.33341 2.15662C9.14675 2.15662 9.00008 2.30328 9.00008 2.48995C9.00008 2.67662 9.14675 2.82328 9.33341 2.82328ZM2.00008 9.48995C1.81341 9.48995 1.66675 9.63662 1.66675 9.82328C1.66675 10.0099 1.81341 10.1566 2.00008 10.1566C2.18675 10.1566 2.33341 10.0099 2.33341 9.82328C2.33341 9.63662 2.18675 9.48995 2.00008 9.48995ZM6.66675 14.1566C6.48008 14.1566 6.33341 14.3033 6.33341 14.4899C6.33341 14.6766 6.48008 14.8233 6.66675 14.8233C6.85341 14.8233 7.00008 14.6766 7.00008 14.4899C7.00008 14.3033 6.85341 14.1566 6.66675 14.1566ZM6.66675 2.82328C6.85341 2.82328 7.00008 2.67662 7.00008 2.48995C7.00008 2.30328 6.85341 2.15662 6.66675 2.15662C6.48008 2.15662 6.33341 2.30328 6.33341 2.48995C6.33341 2.67662 6.48008 2.82328 6.66675 2.82328ZM6.66675 5.15662C7.03341 5.15662 7.33341 4.85662 7.33341 4.48995C7.33341 4.12328 7.03341 3.82328 6.66675 3.82328C6.30008 3.82328 6.00008 4.12328 6.00008 4.48995C6.00008 4.85662 6.30008 5.15662 6.66675 5.15662ZM6.66675 8.82328C6.11341 8.82328 5.66675 9.26995 5.66675 9.82328C5.66675 10.3766 6.11341 10.8233 6.66675 10.8233C7.22008 10.8233 7.66675 10.3766 7.66675 9.82328C7.66675 9.26995 7.22008 8.82328 6.66675 8.82328ZM12.0001 9.15662C11.6334 9.15662 11.3334 9.45662 11.3334 9.82328C11.3334 10.1899 11.6334 10.4899 12.0001 10.4899C12.3667 10.4899 12.6667 10.1899 12.6667 9.82328C12.6667 9.45662 12.3667 9.15662 12.0001 9.15662ZM12.0001 11.8233C11.6334 11.8233 11.3334 12.1233 11.3334 12.4899C11.3334 12.8566 11.6334 13.1566 12.0001 13.1566C12.3667 13.1566 12.6667 12.8566 12.6667 12.4899C12.6667 12.1233 12.3667 11.8233 12.0001 11.8233ZM12.0001 6.48995C11.6334 6.48995 11.3334 6.78995 11.3334 7.15662C11.3334 7.52328 11.6334 7.82328 12.0001 7.82328C12.3667 7.82328 12.6667 7.52328 12.6667 7.15662C12.6667 6.78995 12.3667 6.48995 12.0001 6.48995ZM12.0001 3.82328C11.6334 3.82328 11.3334 4.12328 11.3334 4.48995C11.3334 4.85662 11.6334 5.15662 12.0001 5.15662C12.3667 5.15662 12.6667 4.85662 12.6667 4.48995C12.6667 4.12328 12.3667 3.82328 12.0001 3.82328ZM14.0001 9.48995C13.8134 9.48995 13.6667 9.63662 13.6667 9.82328C13.6667 10.0099 13.8134 10.1566 14.0001 10.1566C14.1867 10.1566 14.3334 10.0099 14.3334 9.82328C14.3334 9.63662 14.1867 9.48995 14.0001 9.48995ZM9.33341 11.8233C8.96675 11.8233 8.66675 12.1233 8.66675 12.4899C8.66675 12.8566 8.96675 13.1566 9.33341 13.1566C9.70008 13.1566 10.0001 12.8566 10.0001 12.4899C10.0001 12.1233 9.70008 11.8233 9.33341 11.8233ZM9.33341 14.1566C9.14675 14.1566 9.00008 14.3033 9.00008 14.4899C9.00008 14.6766 9.14675 14.8233 9.33341 14.8233C9.52008 14.8233 9.66675 14.6766 9.66675 14.4899C9.66675 14.3033 9.52008 14.1566 9.33341 14.1566ZM6.66675 6.15662C6.11341 6.15662 5.66675 6.60328 5.66675 7.15662C5.66675 7.70995 6.11341 8.15662 6.66675 8.15662C7.22008 8.15662 7.66675 7.70995 7.66675 7.15662C7.66675 6.60328 7.22008 6.15662 6.66675 6.15662ZM6.66675 11.8233C6.30008 11.8233 6.00008 12.1233 6.00008 12.4899C6.00008 12.8566 6.30008 13.1566 6.66675 13.1566C7.03341 13.1566 7.33341 12.8566 7.33341 12.4899C7.33341 12.1233 7.03341 11.8233 6.66675 11.8233ZM9.33341 8.82328C8.78008 8.82328 8.33341 9.26995 8.33341 9.82328C8.33341 10.3766 8.78008 10.8233 9.33341 10.8233C9.88675 10.8233 10.3334 10.3766 10.3334 9.82328C10.3334 9.26995 9.88675 8.82328 9.33341 8.82328ZM9.33341 6.15662C8.78008 6.15662 8.33341 6.60328 8.33341 7.15662C8.33341 7.70995 8.78008 8.15662 9.33341 8.15662C9.88675 8.15662 10.3334 7.70995 10.3334 7.15662C10.3334 6.60328 9.88675 6.15662 9.33341 6.15662Z" fill="#B5B5B5"/>
</svg>
